<!-- icon666.com - MILLIONS vector ICONS FREE --><svg id="Layer_1" enable-background="new 0 0 512 512" viewBox="0 0 512 512" xmlns="http://www.w3.org/2000/svg"><g clip-rule="evenodd" fill-rule="evenodd"><path d="m256 248.58c61.09 0 112.135 55.433 124.513 129.404 3.317 19.822-2.597 38.631-16.327 51.93-13.731 13.299-31.402 17.332-48.788 11.136-18.499-6.593-38.511-10.195-59.398-10.195s-40.899 3.603-59.398 10.195c-17.386 6.196-35.058 2.163-48.788-11.136-13.729-13.299-19.644-32.108-16.326-51.93 12.377-73.971 63.422-129.404 124.512-129.404zm-199.115-51.26c20.837-5.942 44.254 12.12 52.301 40.345 8.048 28.223-2.321 55.919-23.158 61.861-20.838 5.942-44.254-12.121-52.302-40.345-8.047-28.223 2.322-55.919 23.159-61.861zm398.229 0c-20.837-5.941-44.254 12.121-52.301 40.344-8.048 28.223 2.32 55.92 23.158 61.862 20.838 5.941 44.254-12.121 52.302-40.344 8.048-28.224-2.321-55.92-23.159-61.862zm-275.496-129.212c25.843 0 46.794 30.605 46.794 68.359s-20.95 68.359-46.794 68.359c-25.843 0-46.793-30.605-46.793-68.359 0-37.753 20.95-68.359 46.793-68.359zm152.764 0c25.843 0 46.793 30.605 46.793 68.359s-20.95 68.359-46.793 68.359-46.793-30.605-46.793-68.359c-.001-37.753 20.95-68.359 46.793-68.359z" fill="#8ac9fe"></path><path d="m81.66 284.114c-10.615 3.011-26.536-8.299-32.548-29.349-2.912-10.229-2.771-20.91.329-29.293 1.503-3.936 4.979-10.84 11.835-12.789 10.568-3.02 26.536 8.29 32.501 29.34 6.012 21.05-1.55 39.071-12.117 42.091zm42.927-50.86c-4.838-16.922-14.419-31.58-26.959-41.27-13.808-10.642-30.246-14.32-45.135-10.084-14.888 4.246-26.912 16.034-33.018 32.351-5.542 14.874-5.965 32.374-1.127 49.291 4.791 16.913 14.372 31.571 26.959 41.26 10.051 7.749 21.464 11.803 32.689 11.803 4.18 0 8.36-.564 12.399-1.719 14.888-4.246 26.912-16.034 33.017-32.351 5.59-14.873 5.966-32.373 1.175-49.281zm338.301 21.511c-6.012 21.05-21.933 32.36-32.548 29.349-10.567-3.02-18.129-21.041-12.117-42.091 5.354-18.796 18.646-29.828 28.932-29.828 1.268 0 2.442.16 3.569.488 6.857 1.949 10.333 8.853 11.836 12.789 3.099 8.383 3.24 19.063.328 29.293zm29.636-40.514c-6.106-16.316-18.176-28.105-33.018-32.351-14.888-4.236-31.326-.559-45.135 10.084-12.54 9.689-22.121 24.348-26.959 41.26-4.791 16.917-4.415 34.417 1.174 49.291 6.106 16.316 18.129 28.105 32.971 32.351 4.086 1.155 8.219 1.719 12.446 1.719 11.225 0 22.638-4.053 32.689-11.803 12.587-9.689 22.168-24.348 26.959-41.26 4.838-16.917 4.415-34.416-1.127-49.291zm-312.892-130.168c14.56 0 30.763 21.501 30.763 52.363 0 30.847-16.204 52.349-30.763 52.349s-30.81-21.501-30.81-52.349c0-30.861 16.251-52.363 30.81-52.363zm0 136.711c-17.706 0-34.567-9.83-46.309-26.982-10.614-15.551-16.485-35.92-16.485-57.365 0-21.464 5.871-41.833 16.485-57.384 11.742-17.147 28.603-26.978 46.309-26.978 17.66 0 34.521 9.83 46.262 26.978 10.661 15.551 16.532 35.92 16.532 57.384 0 21.445-5.871 41.814-16.532 57.365-11.741 17.152-28.602 26.982-46.262 26.982zm152.736-136.711c14.559 0 30.81 21.501 30.81 52.363 0 30.847-16.251 52.349-30.81 52.349-14.56 0-30.763-21.501-30.763-52.349 0-30.861 16.203-52.363 30.763-52.363zm0 136.711c-17.66 0-34.521-9.83-46.262-26.982-10.661-15.551-16.532-35.92-16.532-57.365 0-21.464 5.871-41.833 16.532-57.384 11.742-17.147 28.603-26.978 46.262-26.978 17.706 0 34.567 9.83 46.309 26.978 10.614 15.551 16.485 35.92 16.485 57.384 0 21.445-5.871 41.814-16.485 57.365-11.742 17.152-28.603 26.982-46.309 26.982zm20.665 197.602c-9.393 9.116-20.571 11.728-32.266 7.557-20.712-7.388-42.505-11.131-64.767-11.131s-44.055 3.743-64.767 11.131c-11.695 4.171-22.873 1.559-32.266-7.557-10.004-9.685-14.137-23.103-11.695-37.803 11.225-67.237 56.971-116.04 108.728-116.04s97.456 48.803 108.728 116.04c2.442 14.7-1.691 28.119-11.695 37.803zm-4.884-143.9c24.469 25.799 41.565 61.597 48.141 100.818 4.18 25.019-3.428 49.099-20.994 66.059-12.587 12.211-27.851 18.542-43.773 18.542-7.092 0-14.325-1.263-21.511-3.818-17.237-6.153-35.413-9.271-54.012-9.271s-36.775 3.119-54.011 9.271c-23.296 8.285-47.108 2.926-65.331-14.724-17.519-16.96-25.127-41.039-20.947-66.059 6.576-39.222 23.671-75.02 48.188-100.818 25.644-27.053 58.38-41.941 92.101-41.941 33.722-.001 66.411 14.888 92.149 41.941z" fill="#428dff"></path></g></svg>